# xmcd
#
# Track frame offsets:
#	150
#	9045
#	20331
#	34087
#	43965
#	59736
#	70340
#	82918
#	93004
#	104640
#
# Disc length: 1561 seconds
#
# Revision: 1
# Processed by: cddbd v1.5.1PL2 Copyright (c) Steve Scherf et al.
# Submitted via: audiograbber 1.83.01
#
DISCID=7806170a
DTITLE=Rusty Bars - We Make It Swing
DYEAR=2002
DGENRE=Country
TTITLE0=Rave On (rock and roll)
TTITLE1=Jambalaya (old style country)
TTITLE2=Cheatin' Heart (old style country)
TTITLE3=Big Black Train (country boogie)
TTITLE4=Milkcow Blues (country tradional)
TTITLE5=Train 45 (bluegrass)
TTITLE6=Whole Lotta Shakin' (rock and roll)
TTITLE7=In The Jailhouse Now (old style country)
TTITLE8=I'm Satisfied With You (country tradional)
TTITLE9=Boppin' The Blues (rockabilly)
EXTD=
EXTT0=
EXTT1=
EXTT2=
EXTT3=
EXTT4=
EXTT5=
EXTT6=
EXTT7=
EXTT8=
EXTT9=
PLAYORDER=
